# MagicaVoxel @ Ephtracy

# group
o 

# material
mtllib Player.mtl
usemtl palette

# normals
vn -1 0 0
vn 1 0 0
vn 0 0 1
vn 0 0 -1
vn 0 -1 0
vn 0 1 0

# texcoords
vt 0.826172 0.5
vt 0.892578 0.5
vt 0.958984 0.5

# verts
v -0.5 1.7 0
v -0.5 1.7 -0.1
v -0.5 2.5 0
v -0.5 2.5 -0.1
v -0.4 1.6 0
v -0.4 1.6 -0.1
v -0.4 1.7 0
v -0.4 1.7 -0.1
v -0.2 1.5 0
v -0.2 1.5 -0.1
v -0.2 1.6 0
v -0.2 1.6 -0.1
v 0.2 1.8 0
v 0.2 1.8 -0.1
v 0.2 1.9 0
v 0.2 1.9 -0.1
v 0.2 2 0
v 0.2 2 -0.1
v 0.2 2.1 0
v 0.2 2.1 -0.1
v 0.2 2.2 0
v 0.2 2.2 -0.1
v 0.2 2.3 0
v 0.2 2.3 -0.1
v 0.2 2.4 0
v 0.2 2.4 -0.1
v 0.2 2.5 0
v 0.2 2.5 -0.1
v 0.3 1.9 0
v 0.3 1.9 -0.1
v 0.3 2 0
v 0.3 2 -0.1
v 0.3 2.1 0
v 0.3 2.1 -0.1
v 0.3 2.2 0
v 0.3 2.2 -0.1
v 0.3 2.3 0
v 0.3 2.3 -0.1
v 0.3 2.4 0
v 0.3 2.4 -0.1
v -0.3 1.9 0
v -0.3 1.9 -0.1
v -0.3 2 0
v -0.3 2 -0.1
v -0.3 2.1 0
v -0.3 2.1 -0.1
v -0.3 2.2 0
v -0.3 2.2 -0.1
v -0.3 2.3 0
v -0.3 2.3 -0.1
v -0.3 2.4 0
v -0.3 2.4 -0.1
v -0.2 1.8 0
v -0.2 1.8 -0.1
v -0.2 1.9 0
v -0.2 1.9 -0.1
v -0.2 2 0
v -0.2 2 -0.1
v -0.2 2.1 0
v -0.2 2.1 -0.1
v -0.2 2.2 0
v -0.2 2.2 -0.1
v -0.2 2.3 0
v -0.2 2.3 -0.1
v -0.2 2.4 0
v -0.2 2.4 -0.1
v -0.2 2.5 0
v -0.2 2.5 -0.1
v 0.2 1.5 0
v 0.2 1.5 -0.1
v 0.2 1.6 0
v 0.2 1.6 -0.1
v 0.4 1.6 0
v 0.4 1.6 -0.1
v 0.4 1.7 0
v 0.4 1.7 -0.1
v 0.5 1.7 0
v 0.5 1.7 -0.1
v 0.5 2.5 0
v 0.5 2.5 -0.1
v -0.5 1.7 0
v -0.5 2.5 0
v -0.4 1.6 0
v -0.4 1.7 0
v -0.3 1.8 0
v -0.3 1.9 0
v -0.3 2 0
v -0.3 2.1 0
v -0.3 2.2 0
v -0.3 2.3 0
v -0.3 2.4 0
v -0.3 2.5 0
v -0.2 1.5 0
v -0.2 1.6 0
v -0.2 1.8 0
v -0.2 1.9 0
v -0.2 2 0
v -0.2 2.1 0
v -0.2 2.2 0
v -0.2 2.3 0
v -0.2 2.4 0
v -0.2 2.5 0
v 0 1.5 0
v 0 1.8 0
v 0.2 1.5 0
v 0.2 1.6 0
v 0.2 1.8 0
v 0.2 1.9 0
v 0.2 2 0
v 0.2 2.1 0
v 0.2 2.2 0
v 0.2 2.3 0
v 0.2 2.4 0
v 0.2 2.5 0
v 0.3 1.8 0
v 0.3 1.9 0
v 0.3 2 0
v 0.3 2.1 0
v 0.3 2.2 0
v 0.3 2.3 0
v 0.3 2.4 0
v 0.3 2.5 0
v 0.4 1.6 0
v 0.4 1.7 0
v 0.5 1.7 0
v 0.5 2.5 0
v -0.5 1.7 -0.1
v -0.5 2.5 -0.1
v -0.4 1.6 -0.1
v -0.4 1.7 -0.1
v -0.3 1.8 -0.1
v -0.3 1.9 -0.1
v -0.3 2 -0.1
v -0.3 2.1 -0.1
v -0.3 2.2 -0.1
v -0.3 2.3 -0.1
v -0.3 2.4 -0.1
v -0.3 2.5 -0.1
v -0.2 1.5 -0.1
v -0.2 1.6 -0.1
v -0.2 1.8 -0.1
v -0.2 1.9 -0.1
v -0.2 2 -0.1
v -0.2 2.1 -0.1
v -0.2 2.2 -0.1
v -0.2 2.3 -0.1
v -0.2 2.4 -0.1
v -0.2 2.5 -0.1
v 0 1.5 -0.1
v 0 1.8 -0.1
v 0.2 1.5 -0.1
v 0.2 1.6 -0.1
v 0.2 1.8 -0.1
v 0.2 1.9 -0.1
v 0.2 2 -0.1
v 0.2 2.1 -0.1
v 0.2 2.2 -0.1
v 0.2 2.3 -0.1
v 0.2 2.4 -0.1
v 0.2 2.5 -0.1
v 0.3 1.8 -0.1
v 0.3 1.9 -0.1
v 0.3 2 -0.1
v 0.3 2.1 -0.1
v 0.3 2.2 -0.1
v 0.3 2.3 -0.1
v 0.3 2.4 -0.1
v 0.3 2.5 -0.1
v 0.4 1.6 -0.1
v 0.4 1.7 -0.1
v 0.5 1.7 -0.1
v 0.5 2.5 -0.1
v -0.2 1.5 0
v 0 1.5 0
v 0.2 1.5 0
v -0.2 1.5 -0.1
v 0 1.5 -0.1
v 0.2 1.5 -0.1
v -0.4 1.6 0
v -0.2 1.6 0
v 0.2 1.6 0
v 0.4 1.6 0
v -0.4 1.6 -0.1
v -0.2 1.6 -0.1
v 0.2 1.6 -0.1
v 0.4 1.6 -0.1
v -0.5 1.7 0
v -0.4 1.7 0
v 0.4 1.7 0
v 0.5 1.7 0
v -0.5 1.7 -0.1
v -0.4 1.7 -0.1
v 0.4 1.7 -0.1
v 0.5 1.7 -0.1
v -0.3 2 0
v -0.2 2 0
v 0.2 2 0
v 0.3 2 0
v -0.3 2 -0.1
v -0.2 2 -0.1
v 0.2 2 -0.1
v 0.3 2 -0.1
v -0.3 2.2 0
v -0.2 2.2 0
v 0.2 2.2 0
v 0.3 2.2 0
v -0.3 2.2 -0.1
v -0.2 2.2 -0.1
v 0.2 2.2 -0.1
v 0.3 2.2 -0.1
v -0.3 2.4 0
v -0.2 2.4 0
v 0.2 2.4 0
v 0.3 2.4 0
v -0.3 2.4 -0.1
v -0.2 2.4 -0.1
v 0.2 2.4 -0.1
v 0.3 2.4 -0.1
v -0.2 1.8 0
v 0 1.8 0
v 0.2 1.8 0
v -0.2 1.8 -0.1
v 0 1.8 -0.1
v 0.2 1.8 -0.1
v -0.3 1.9 0
v -0.2 1.9 0
v 0.2 1.9 0
v 0.3 1.9 0
v -0.3 1.9 -0.1
v -0.2 1.9 -0.1
v 0.2 1.9 -0.1
v 0.3 1.9 -0.1
v -0.3 2.1 0
v -0.2 2.1 0
v 0.2 2.1 0
v 0.3 2.1 0
v -0.3 2.1 -0.1
v -0.2 2.1 -0.1
v 0.2 2.1 -0.1
v 0.3 2.1 -0.1
v -0.3 2.3 0
v -0.2 2.3 0
v 0.2 2.3 0
v 0.3 2.3 0
v -0.3 2.3 -0.1
v -0.2 2.3 -0.1
v 0.2 2.3 -0.1
v 0.3 2.3 -0.1
v -0.5 2.5 0
v -0.3 2.5 0
v -0.2 2.5 0
v 0.2 2.5 0
v 0.3 2.5 0
v 0.5 2.5 0
v -0.5 2.5 -0.1
v -0.3 2.5 -0.1
v -0.2 2.5 -0.1
v 0.2 2.5 -0.1
v 0.3 2.5 -0.1
v 0.5 2.5 -0.1

# faces
f 3/1/1 2/1/1 1/1/1
f 4/1/1 2/1/1 3/1/1
f 7/1/1 6/1/1 5/1/1
f 8/1/1 6/1/1 7/1/1
f 11/1/1 10/1/1 9/1/1
f 12/1/1 10/1/1 11/1/1
f 15/3/1 14/3/1 13/3/1
f 16/3/1 14/3/1 15/3/1
f 19/3/1 18/3/1 17/3/1
f 20/3/1 18/3/1 19/3/1
f 23/3/1 22/3/1 21/3/1
f 24/3/1 22/3/1 23/3/1
f 27/3/1 26/3/1 25/3/1
f 28/3/1 26/3/1 27/3/1
f 31/2/1 30/2/1 29/2/1
f 32/2/1 30/2/1 31/2/1
f 35/2/1 34/2/1 33/2/1
f 36/2/1 34/2/1 35/2/1
f 39/2/1 38/2/1 37/2/1
f 40/2/1 38/2/1 39/2/1
f 41/1/2 42/1/2 43/1/2
f 43/1/2 42/1/2 44/1/2
f 45/1/2 46/1/2 47/1/2
f 47/1/2 46/1/2 48/1/2
f 49/1/2 50/1/2 51/1/2
f 51/1/2 50/1/2 52/1/2
f 53/3/2 54/3/2 55/3/2
f 55/3/2 54/3/2 56/3/2
f 57/3/2 58/3/2 59/3/2
f 59/3/2 58/3/2 60/3/2
f 61/3/2 62/3/2 63/3/2
f 63/3/2 62/3/2 64/3/2
f 65/3/2 66/3/2 67/3/2
f 67/3/2 66/3/2 68/3/2
f 69/2/2 70/2/2 71/2/2
f 71/2/2 70/2/2 72/2/2
f 73/2/2 74/2/2 75/2/2
f 75/2/2 74/2/2 76/2/2
f 77/2/2 78/2/2 79/2/2
f 79/2/2 78/2/2 80/2/2
f 84/1/3 82/1/3 81/1/3
f 85/1/3 82/1/3 84/1/3
f 85/1/3 84/1/3 83/1/3
f 86/1/3 82/1/3 85/1/3
f 87/1/3 82/1/3 86/1/3
f 88/1/3 82/1/3 87/1/3
f 89/1/3 82/1/3 88/1/3
f 90/1/3 82/1/3 89/1/3
f 91/1/3 82/1/3 90/1/3
f 92/1/3 82/1/3 91/1/3
f 94/1/3 85/1/3 83/1/3
f 95/3/3 86/3/3 85/3/3
f 95/1/3 85/1/3 94/1/3
f 96/3/3 86/3/3 95/3/3
f 97/3/3 88/3/3 87/3/3
f 98/3/3 88/3/3 97/3/3
f 99/3/3 90/3/3 89/3/3
f 100/3/3 90/3/3 99/3/3
f 101/3/3 92/3/3 91/3/3
f 102/3/3 92/3/3 101/3/3
f 103/1/3 94/1/3 93/1/3
f 103/1/3 95/1/3 94/1/3
f 104/1/3 95/1/3 103/1/3
f 105/2/3 104/2/3 103/2/3
f 106/2/3 104/2/3 105/2/3
f 107/2/3 104/2/3 106/2/3
f 115/2/3 107/2/3 106/2/3
f 115/3/3 108/3/3 107/3/3
f 116/3/3 108/3/3 115/3/3
f 117/3/3 110/3/3 109/3/3
f 118/3/3 110/3/3 117/3/3
f 119/3/3 112/3/3 111/3/3
f 120/3/3 112/3/3 119/3/3
f 121/3/3 114/3/3 113/3/3
f 122/3/3 114/3/3 121/3/3
f 123/2/3 120/2/3 119/2/3
f 123/2/3 118/2/3 117/2/3
f 123/2/3 122/2/3 121/2/3
f 123/2/3 121/2/3 120/2/3
f 123/2/3 116/2/3 115/2/3
f 123/2/3 119/2/3 118/2/3
f 123/2/3 115/2/3 106/2/3
f 123/2/3 117/2/3 116/2/3
f 124/2/3 122/2/3 123/2/3
f 125/2/3 122/2/3 124/2/3
f 126/2/3 122/2/3 125/2/3
f 127/1/4 128/1/4 130/1/4
f 130/1/4 128/1/4 131/1/4
f 129/1/4 130/1/4 131/1/4
f 131/1/4 128/1/4 132/1/4
f 132/1/4 128/1/4 133/1/4
f 133/1/4 128/1/4 134/1/4
f 134/1/4 128/1/4 135/1/4
f 135/1/4 128/1/4 136/1/4
f 136/1/4 128/1/4 137/1/4
f 137/1/4 128/1/4 138/1/4
f 129/1/4 131/1/4 140/1/4
f 131/3/4 132/3/4 141/3/4
f 140/1/4 131/1/4 141/1/4
f 141/3/4 132/3/4 142/3/4
f 133/3/4 134/3/4 143/3/4
f 143/3/4 134/3/4 144/3/4
f 135/3/4 136/3/4 145/3/4
f 145/3/4 136/3/4 146/3/4
f 137/3/4 138/3/4 147/3/4
f 147/3/4 138/3/4 148/3/4
f 139/1/4 140/1/4 149/1/4
f 140/1/4 141/1/4 149/1/4
f 149/1/4 141/1/4 150/1/4
f 149/2/4 150/2/4 151/2/4
f 151/2/4 150/2/4 152/2/4
f 152/2/4 150/2/4 153/2/4
f 152/2/4 153/2/4 161/2/4
f 153/3/4 154/3/4 161/3/4
f 161/3/4 154/3/4 162/3/4
f 155/3/4 156/3/4 163/3/4
f 163/3/4 156/3/4 164/3/4
f 157/3/4 158/3/4 165/3/4
f 165/3/4 158/3/4 166/3/4
f 159/3/4 160/3/4 167/3/4
f 167/3/4 160/3/4 168/3/4
f 165/2/4 166/2/4 169/2/4
f 163/2/4 164/2/4 169/2/4
f 167/2/4 168/2/4 169/2/4
f 166/2/4 167/2/4 169/2/4
f 161/2/4 162/2/4 169/2/4
f 164/2/4 165/2/4 169/2/4
f 152/2/4 161/2/4 169/2/4
f 162/2/4 163/2/4 169/2/4
f 169/2/4 168/2/4 170/2/4
f 170/2/4 168/2/4 171/2/4
f 171/2/4 168/2/4 172/2/4
f 176/1/5 174/1/5 173/1/5
f 177/2/5 175/2/5 174/2/5
f 177/1/5 174/1/5 176/1/5
f 178/2/5 175/2/5 177/2/5
f 183/1/5 180/1/5 179/1/5
f 184/1/5 180/1/5 183/1/5
f 185/2/5 182/2/5 181/2/5
f 186/2/5 182/2/5 185/2/5
f 191/1/5 188/1/5 187/1/5
f 192/1/5 188/1/5 191/1/5
f 193/2/5 190/2/5 189/2/5
f 194/2/5 190/2/5 193/2/5
f 199/3/5 196/3/5 195/3/5
f 200/3/5 196/3/5 199/3/5
f 201/3/5 198/3/5 197/3/5
f 202/3/5 198/3/5 201/3/5
f 207/3/5 204/3/5 203/3/5
f 208/3/5 204/3/5 207/3/5
f 209/3/5 206/3/5 205/3/5
f 210/3/5 206/3/5 209/3/5
f 215/3/5 212/3/5 211/3/5
f 216/3/5 212/3/5 215/3/5
f 217/3/5 214/3/5 213/3/5
f 218/3/5 214/3/5 217/3/5
f 219/1/6 220/1/6 222/1/6
f 220/2/6 221/2/6 223/2/6
f 222/1/6 220/1/6 223/1/6
f 223/2/6 221/2/6 224/2/6
f 225/3/6 226/3/6 229/3/6
f 229/3/6 226/3/6 230/3/6
f 227/3/6 228/3/6 231/3/6
f 231/3/6 228/3/6 232/3/6
f 233/3/6 234/3/6 237/3/6
f 237/3/6 234/3/6 238/3/6
f 235/3/6 236/3/6 239/3/6
f 239/3/6 236/3/6 240/3/6
f 241/3/6 242/3/6 245/3/6
f 245/3/6 242/3/6 246/3/6
f 243/3/6 244/3/6 247/3/6
f 247/3/6 244/3/6 248/3/6
f 249/1/6 250/1/6 255/1/6
f 250/3/6 251/3/6 256/3/6
f 255/1/6 250/1/6 256/1/6
f 256/3/6 251/3/6 257/3/6
f 252/3/6 253/3/6 258/3/6
f 253/2/6 254/2/6 259/2/6
f 258/3/6 253/3/6 259/3/6
f 259/2/6 254/2/6 260/2/6
